/* XPM */
static char *heart[] = {
/* columns rows colors chars-per-pixel */
"32 32 35 1 ",
"  c black",
". c #00FE00000000",
"X c #028D00000000",
"o c #080200000000",
"O c #0A9200000000",
"+ c #0C2500000000",
"@ c #0CD300000000",
"# c #0F1400000000",
"$ c #100800000000",
"% c #164600000000",
"& c #1A3C00000000",
"* c #23F200000000",
"= c #264300000000",
"- c #308700000000",
"; c #30C700000000",
": c #32EA00000000",
"> c #366400000000",
", c #3AE400000000",
"< c #3D7D00000000",
"1 c #3FDF00000000",
"2 c #639B00000000",
"3 c #791A00000000",
"4 c #940400000000",
"5 c #A3D600000000",
"6 c #A6F700000000",
"7 c #ABEC00000000",
"8 c #B39000000000",
"9 c #C4B800000000",
"0 c #C79000000000",
"q c #CBB900000000",
"w c #CDFB00000000",
"e c #D5DC00000000",
"r c #E8C700000000",
"t c #F99E00000000",
"y c red",
/* pixels */
"                                ",
"                                ",
"                                ",
"                                ",
"                                ",
"                                ",
"                                ",
"         <39r81   18rq3,        ",
"       @4yyyyyy9@9yyyyyy4O      ",
"       wyyyyyyyy7yyyyyyyyw      ",
"      2yyyyyyyyyyyyyyyyyyy2     ",
"      yyyyyyyyyyyyyyyyyyyyy     ",
"     %yyyyyyyyyyyyyyyyyyyyy%    ",
"     <yyyyyyyyyyyyyyyyyyyyy<    ",
"     -yyyyyyyyyyyyyyyyyyyyy-    ",
"     $yyyyyyyyyyyyyyyyyyyyy$    ",
"      qyyyyyyyyyyyyyyyyyyyq     ",
"      >yyyyyyyyyyyyyyyyyyy>     ",
"       6yyyyyyyyyyyyyyyyy6      ",
"       @yyyyyyyyyyyyyyyyy@      ",
"        *yyyyyyyyyyyyyyy*       ",
"         -yyyyyyyyyyyyy-        ",
"          >yyyyyyyyyyy>         ",
"           -yyyyyyyyy-          ",
"            *yyyyyyy*           ",
"             &tyyyt&            ",
"              $eye$             ",
"               O5O              ",
"                                ",
"                                ",
"                                ",
"                                "
};
