/* XPM */
static char *exit[] = {
/* columns rows colors chars-per-pixel */
"32 32 24 1 ",
"  c black",
". c #000000E50000",
"X c #000004980000",
"o c #00000A940000",
"O c #000013110000",
"+ c #000018C50000",
"@ c #0000269A0000",
"# c #000029DD0000",
"$ c #00003C7F0000",
"% c #0000484A0000",
"& c #000058AA0000",
"* c #000059170000",
"= c #0000782B0000",
"- c #00007AF00000",
"; c #00008FFF0000",
": c #000090930000",
"> c #000092D60000",
", c #0000A5DB0000",
"< c #0000ABDF0000",
"1 c #0000D88F0000",
"2 c #0000DF230000",
"3 c #0000E8000000",
"4 c #0000E86F0000",
"5 c green",
/* pixels */
"                                ",
"                                ",
"                                ",
"            X@&=:=&@X           ",
"          +:555555555:+         ",
"        X=55553<5<35555=X       ",
"       O2554%o ;5; o%4552O      ",
"      O555&    ;5;    &555O     ",
"     X355#     ;5;     #552X    ",
"     =55@      ;5;      #55=    ",
"    +55&       ;5;       &55+   ",
"    :54        ;5;        45:   ",
"   X55%       $151$       %55X  ",
"   @55o      :55555:      o55@  ",
"   &53      $5555555$      35&  ",
"   =5<      ,5555555,      <5=  ",
"   ;5:      555555555      :5;  ",
"   =5<      ,5555555,      <5=  ",
"   &53      $5555555$      35&  ",
"   @55o      :55555:      o55@  ",
"   X55%       $,5,$       %55X  ",
"    :54                   45:   ",
"    +55&                 &55+   ",
"     =55#               #55=    ",
"     X255@             #552X    ",
"      O555&           &555O     ",
"       O3553%o     o%4552O      ",
"        X=55553<:<35555=X       ",
"          +:555555555:+         ",
"            X@&=:=&@X           ",
"                                ",
"                                "
};
