/* XPM */
static char *character_up[] = {
/* columns rows colors chars-per-pixel */
"32 32 34 1 ",
"  c #000100010000",
". c #00AB00AB0000",
"X c #257225720000",
"o c #25E625E60000",
"O c #272E272E0000",
"+ c #283928390000",
"@ c #31FE31FE0000",
"# c #334A334A0000",
"$ c #33BB33BB0000",
"% c #353A353A0000",
"& c #403A403A0000",
"* c #41DB41DB0000",
"= c #43BB43BB0000",
"- c #6A266A260000",
"; c #8BA38BA30000",
": c #8C788C780000",
"> c #8E1B8E1B0000",
", c #8F888F880000",
"< c #90AF90AF0000",
"1 c #B3BDB3BD0000",
"2 c #BFE3BFE30000",
"3 c #D081D0810000",
"4 c #D9D0D9D00000",
"5 c #DB06DB060000",
"6 c #DD44DD440000",
"7 c #DDBEDDBE0000",
"8 c #E0CBE0CB0000",
"9 c #EE22EE220000",
"0 c #EFBAEFBA0000",
"q c #F619F6190000",
"w c #F833F8330000",
"e c #F950F9500000",
"r c #FC54FC540000",
"t c yellow",
/* pixels */
"                                ",
"                                ",
"                                ",
"                                ",
"                                ",
"                                ",
"                                ",
"                                ",
"             #:5e5;#            ",
"           o5ttttttt7o          ",
"          &t020ttt020t=         ",
"         ot0   0q1   0to        ",
"         5t2   -     2t7        ",
"        %tt0    30   0tt#       ",
"        <ttt02 2tt0: 0tt;       ",
"        7ttttt0ttttt0ttt5       ",
"        etttttttttttttttt       ",
"        7ttttttttttttttt8       ",
"        :ttttttttttttttt<       ",
"        #ttttttttttttttt%       ",
"         8ttttttttttttt7        ",
"         ottttttttttttt+        ",
"          &ttttttttttt&         ",
"           o5ttttttt5o          ",
"             #;5q5;#            ",
"                                ",
"                                ",
"                                ",
"                                ",
"                                ",
"                                ",
"                                "
};
