/* XPM */
static char *wall[] = {
/* columns rows colors chars-per-pixel */
"32 32 4 1 ",
"  c black",
". c gray21",
"X c #4DEE4DEE4DEE",
"o c #606060606060",
/* pixels */
"   .o.     .o.     .o.     .o.  ",
"   .o.     .o.     .o.     .o.  ",
"   .o.     .o.     .o.     .o.  ",
"...XoX.....XoX.....XoX.....XoX..",
"oooooooooooooooooooooooooooooooo",
"...XoX.....XoX.....XoX.....XoX..",
"   .o.     .o.     .o.     .o.  ",
"   .o.     .o.     .o.     .o.  ",
"   .o.     .o.     .o.     .o.  ",
"   .o.     .o.     .o.     .o.  ",
"   .o.     .o.     .o.     .o.  ",
"...XoX.....XoX.....XoX.....XoX..",
"oooooooooooooooooooooooooooooooo",
"...XoX.....XoX.....XoX.....XoX..",
"   .o.     .o.     .o.     .o.  ",
"   .o.     .o.     .o.     .o.  ",
"   .o.     .o.     .o.     .o.  ",
"   .o.     .o.     .o.     .o.  ",
"   .o.     .o.     .o.     .o.  ",
"...XoX.....XoX.....XoX.....XoX..",
"oooooooooooooooooooooooooooooooo",
"...XoX.....XoX.....XoX.....XoX..",
"   .o.     .o.     .o.     .o.  ",
"   .o.     .o.     .o.     .o.  ",
"   .o.     .o.     .o.     .o.  ",
"   .o.     .o.     .o.     .o.  ",
"   .o.     .o.     .o.     .o.  ",
"...XoX.....XoX.....XoX.....XoX..",
"oooooooooooooooooooooooooooooooo",
"...XoX.....XoX.....XoX.....XoX..",
"   .o.     .o.     .o.     .o.  ",
"   .o.     .o.     .o.     .o.  "
};
